<svg xmlns="http://www.w3.org/2000/svg" xmlns:xlink="http://www.w3.org/1999/xlink" width="245.466" height="69.789" viewBox="0 0 245.466 69.789">
  <defs>
    <radialGradient id="radial-gradient" cx="0.5" cy="0.5" r="0.638" gradientTransform="matrix(-0.67, 0, 0, 0.987, 9.728, 0.007)" gradientUnits="objectBoundingBox">
      <stop offset="0" stop-color="#81ac13"/>
      <stop offset="1" stop-color="#499923"/>
    </radialGradient>
    <linearGradient id="linear-gradient" x1="11.093" y1="-0.137" x2="11.093" y2="0.638" gradientUnits="objectBoundingBox">
      <stop offset="0" stop-color="#fff"/>
      <stop offset="1" stop-color="#499923" stop-opacity="0"/>
    </linearGradient>
    <linearGradient id="linear-gradient-2" x1="20.399" y1="-0.137" x2="20.399" y2="0.638" xlink:href="#linear-gradient"/>
  </defs>
  <g id="Gruppe_121" data-name="Gruppe 121" transform="translate(-123.391 -636.145)">
    <path id="Pfad_78" data-name="Pfad 78" d="M123.391,661.761c0,13.111,17.714,23.937,40.7,25.661,8.1,7.066,22.979,11.808,40.013,11.808,2.038,0,4.043-.077,6.017-.209-14.44-.964-26.8-5.356-33.939-11.549,23.342-1.543,41.437-12.459,41.437-25.711,0-13-17.409-23.759-40.109-25.616v9.02a1.376,1.376,0,0,0,1.383,1.366h11.322A1.378,1.378,0,0,1,191.6,647.9v14.776a1.381,1.381,0,0,1-1.391,1.374H178.892a1.376,1.376,0,0,0-1.383,1.366v11.17a1.376,1.376,0,0,1-1.391,1.367H161.141a1.4,1.4,0,0,1-1-.416,1.364,1.364,0,0,1-.389-.952v-11.17a1.376,1.376,0,0,0-1.385-1.366H147.043a1.379,1.379,0,0,1-1.383-1.374V647.9a1.376,1.376,0,0,1,1.383-1.366h11.328a1.376,1.376,0,0,0,1.385-1.366v-8.619C138.919,639.222,123.391,649.493,123.391,661.761Z" fill="url(#radial-gradient)"/>
    <text id="medipresse" transform="translate(219.857 697.934)" fill="#00716f" font-size="35" font-family="DaxCompactPro-Bold, Dax Compact Pro" font-weight="700"><tspan x="0" y="0">medi</tspan><tspan y="0" font-family="DaxCompactPro-Light, Dax Compact Pro" font-weight="300">presse</tspan></text>
    <path id="Pfad_79" data-name="Pfad 79" d="M161.079,677.223h-12.6q3.289.324,6.747.325c20.858,0,37.769-9.083,37.769-20.279,0-9.876-13.134-18.1-30.529-19.91v7.08a1.376,1.376,0,0,0,1.383,1.366h11.322a1.378,1.378,0,0,1,1.391,1.366v14.776a1.381,1.381,0,0,1-1.391,1.374H163.854a1.376,1.376,0,0,0-1.383,1.366v11.17A1.376,1.376,0,0,1,161.079,677.223Z" transform="translate(15.038 0.727)" fill="url(#linear-gradient)" style="mix-blend-mode: hard-light;isolation: isolate"/>
    <path id="Pfad_80" data-name="Pfad 80" d="M129.091,657.11c0,9.313,11.7,17.164,27.638,19.539a1.364,1.364,0,0,1-.389-.952v-11.17a1.376,1.376,0,0,0-1.385-1.366H143.627a1.379,1.379,0,0,1-1.383-1.374V647.011a1.376,1.376,0,0,1,1.383-1.366h11.328a1.376,1.376,0,0,0,1.385-1.366v-6.658C140.6,640.066,129.091,647.867,129.091,657.11Z" transform="translate(3.416 0.885)" fill="url(#linear-gradient-2)" style="mix-blend-mode: hard-light;isolation: isolate"/>
  </g>
</svg>
