<svg xmlns="http://www.w3.org/2000/svg" xmlns:xlink="http://www.w3.org/1999/xlink" width="154.829" height="43.108" viewBox="0 0 154.829 43.108">
  <defs>
    <radialGradient id="radial-gradient" cx="0.5" cy="0.5" r="0.638" gradientTransform="matrix(-0.67, 0, 0, 0.987, 9.728, 0.007)" gradientUnits="objectBoundingBox">
      <stop offset="0" stop-color="#81ac13"/>
      <stop offset="1" stop-color="#499923"/>
    </radialGradient>
    <linearGradient id="linear-gradient" x1="11.093" y1="-0.137" x2="11.093" y2="0.638" gradientUnits="objectBoundingBox">
      <stop offset="0" stop-color="#fff"/>
      <stop offset="1" stop-color="#499923" stop-opacity="0"/>
    </linearGradient>
    <linearGradient id="linear-gradient-2" x1="20.399" y1="-0.137" x2="20.399" y2="0.638" xlink:href="#linear-gradient"/>
  </defs>
  <g id="Gruppe_122" data-name="Gruppe 122" transform="translate(-123.391 -636.145)">
    <path id="Pfad_78" data-name="Pfad 78" d="M123.391,652.162c0,8.2,11.076,14.967,25.448,16.045,5.065,4.418,14.368,7.383,25.019,7.383,1.274,0,2.528-.048,3.762-.131-9.029-.6-16.755-3.349-21.221-7.221,14.6-.965,25.909-7.79,25.909-16.076,0-8.126-10.885-14.856-25.079-16.017v5.64a.86.86,0,0,0,.865.854h7.079a.862.862,0,0,1,.87.854v9.239a.863.863,0,0,1-.87.859h-7.079a.86.86,0,0,0-.865.854v6.984a.86.86,0,0,1-.87.855h-9.364a.874.874,0,0,1-.623-.26.853.853,0,0,1-.243-.595v-6.984a.861.861,0,0,0-.866-.854H138.18a.862.862,0,0,1-.865-.859v-9.239a.86.86,0,0,1,.865-.854h7.083a.861.861,0,0,0,.866-.854V636.4C133.1,638.069,123.391,644.491,123.391,652.162Z" fill="url(#radial-gradient)"/>
    <g id="Gruppe_121" data-name="Gruppe 121">
      <path id="Pfad_79" data-name="Pfad 79" d="M195.977,675.645V665.451c0-1.038-.474-1.579-1.376-1.579a1.611,1.611,0,0,0-1.241.564v11.209h-2.909v-10.24a1.377,1.377,0,0,0-1.488-1.533,2.637,2.637,0,0,0-1.128.226v11.547h-2.909V662.564a8.712,8.712,0,0,1,4.082-.9,3.751,3.751,0,0,1,3.09,1.173,4.671,4.671,0,0,1,3.225-1.173c2.3,0,3.585,1.511,3.585,3.789v10.194Z" fill="#00716f"/>
      <path id="Pfad_80" data-name="Pfad 80" d="M209.9,669.646l-5.954.721c.067,1.647.767,3.023,2.413,3.023a5.378,5.378,0,0,0,2.593-.632l.677,2.21a6.751,6.751,0,0,1-3.563.9c-3.609,0-5.075-2.887-5.075-6.969,0-4.442,1.489-7.239,4.6-7.239,3.067,0,4.353,2.8,4.353,6.743C209.94,668.789,209.917,669.239,209.9,669.646Zm-4.375-5.819c-1.2,0-1.647,1.8-1.647,4.172v.361l3.18-.383C207.053,665.722,206.76,663.827,205.52,663.827Z" fill="#00716f"/>
      <path id="Pfad_81" data-name="Pfad 81" d="M216.64,675.87c-3.518,0-4.984-2.774-4.984-7.036,0-3.744,1.195-7.06,4.511-7.06a3.542,3.542,0,0,1,1.308.2V656.7h2.909v18.268A7.086,7.086,0,0,1,216.64,675.87Zm.835-11.862a2.756,2.756,0,0,0-.745-.091c-1.714,0-2.12,2.12-2.12,4.781,0,2.954.541,4.826,2.03,4.826a2.046,2.046,0,0,0,.835-.134Z" fill="#00716f"/>
      <path id="Pfad_82" data-name="Pfad 82" d="M224.31,659.723a1.624,1.624,0,1,1,1.624-1.624A1.618,1.618,0,0,1,224.31,659.723Zm-1.466,15.922V661.888h2.932v13.757Z" fill="#00716f"/>
      <path id="Pfad_83" data-name="Pfad 83" d="M231.3,675.757a4.436,4.436,0,0,1-1.4-.225v3.721h-1.218V662.564a4.672,4.672,0,0,1,2.819-.9c3.022,0,4.443,2.842,4.443,6.946C235.948,673.187,234.437,675.757,231.3,675.757Zm.2-13.193a3.823,3.823,0,0,0-1.6.316v11.705a5.855,5.855,0,0,0,1.4.2c2.481,0,3.383-2.322,3.383-6.179C234.685,665.226,233.8,662.564,231.505,662.564Z" fill="#00716f"/>
      <path id="Pfad_84" data-name="Pfad 84" d="M242.693,662.9a3.364,3.364,0,0,0-1.217-.2,3.281,3.281,0,0,0-1.421.293v12.653h-1.218V662.564a6.128,6.128,0,0,1,3.2-.9,7.705,7.705,0,0,1,1.038.067Z" fill="#00716f"/>
      <path id="Pfad_85" data-name="Pfad 85" d="M252.257,668.743l-6.428.79c.023,2.706.947,5.3,3.293,5.3a4.4,4.4,0,0,0,2.481-.744l.36.879a4.939,4.939,0,0,1-2.841.9c-3.225,0-4.511-3.112-4.511-6.81,0-4.827,1.376-7.4,3.992-7.4s3.676,2.842,3.676,6.359C252.279,668.18,252.279,668.428,252.257,668.743Zm-3.7-6.179c-1.917,0-2.751,2.458-2.751,6.089l5.232-.632C251.039,665.045,250.5,662.564,248.558,662.564Z" fill="#00716f"/>
      <path id="Pfad_86" data-name="Pfad 86" d="M256.995,675.87a4.145,4.145,0,0,1-2.594-.88l.407-.856a3.821,3.821,0,0,0,2.187.7,2.216,2.216,0,0,0,2.188-2.346c0-3.675-4.6-3.27-4.6-7.532a3.107,3.107,0,0,1,3.225-3.293,3.481,3.481,0,0,1,2.391.88l-.429.812a2.951,2.951,0,0,0-1.962-.722,2.1,2.1,0,0,0-2.052,2.323c0,3.4,4.645,3.135,4.645,7.532A3.326,3.326,0,0,1,256.995,675.87Z" fill="#00716f"/>
      <path id="Pfad_87" data-name="Pfad 87" d="M264.845,675.87a4.143,4.143,0,0,1-2.594-.88l.406-.856a3.824,3.824,0,0,0,2.188.7,2.216,2.216,0,0,0,2.187-2.346c0-3.675-4.6-3.27-4.6-7.532a3.107,3.107,0,0,1,3.225-3.293,3.477,3.477,0,0,1,2.39.88l-.428.812a2.953,2.953,0,0,0-1.962-.722,2.105,2.105,0,0,0-2.053,2.323c0,3.4,4.646,3.135,4.646,7.532A3.326,3.326,0,0,1,264.845,675.87Z" fill="#00716f"/>
      <path id="Pfad_88" data-name="Pfad 88" d="M278.2,668.743l-6.427.79c.022,2.706.947,5.3,3.292,5.3a4.394,4.394,0,0,0,2.481-.744l.361.879a4.94,4.94,0,0,1-2.842.9c-3.225,0-4.51-3.112-4.51-6.81,0-4.827,1.376-7.4,3.991-7.4s3.677,2.842,3.677,6.359C278.22,668.18,278.22,668.428,278.2,668.743Zm-3.7-6.179c-1.917,0-2.752,2.458-2.752,6.089l5.232-.632C276.979,665.045,276.438,662.564,274.5,662.564Z" fill="#00716f"/>
    </g>
    <path id="Pfad_89" data-name="Pfad 89" d="M156.359,662.284h-7.876q2.057.2,4.219.2c13.042,0,23.616-5.679,23.616-12.68,0-6.175-8.212-11.315-19.089-12.449v4.427a.86.86,0,0,0,.865.854h7.079a.862.862,0,0,1,.87.854v9.239a.863.863,0,0,1-.87.859h-7.079a.86.86,0,0,0-.865.854v6.984A.86.86,0,0,1,156.359,662.284Z" fill="url(#linear-gradient)" style="mix-blend-mode: hard-light;isolation: isolate"/>
    <path id="Pfad_90" data-name="Pfad 90" d="M129.091,649.807c0,5.823,7.317,10.732,17.281,12.217a.853.853,0,0,1-.243-.595v-6.984a.861.861,0,0,0-.866-.854H138.18a.862.862,0,0,1-.865-.859v-9.239a.86.86,0,0,1,.865-.854h7.083a.861.861,0,0,0,.866-.854v-4.163C136.287,639.15,129.091,644.028,129.091,649.807Z" fill="url(#linear-gradient-2)" style="mix-blend-mode: hard-light;isolation: isolate"/>
  </g>
</svg>
